<svg id="_24-hours" data-name="24-hours" xmlns="http://www.w3.org/2000/svg" viewBox="0 0 100 100">
  <defs>
    <style>
      .cls-1 {
        fill: #707070;
      }
    </style>
  </defs>
  <g id="Group_253" data-name="Group 253">
    <g id="Group_252" data-name="Group 252">
      <path id="Path_242" data-name="Path 242" class="cls-1" d="M351.669,305.338h-5V273.671a1.667,1.667,0,0,0-3.032-.955L320.3,306.05a1.667,1.667,0,0,0,1.365,2.622h21.667v5a1.667,1.667,0,0,0,3.333,0v-5h5a1.667,1.667,0,0,0,0-3.333Zm-8.333,0H324.869l18.467-26.38Z" transform="translate(-253.336 -215.338)"/>
      <path id="Path_243" data-name="Path 243" class="cls-1" d="M233,311.989H213.268l18.345-21.6a1.8,1.8,0,0,0,.117-.155,11.593,11.593,0,0,0-2.617-15.74A13.333,13.333,0,0,0,208,285.322a1.667,1.667,0,1,0,3.333,0,10,10,0,0,1,15.833-8.123A8.228,8.228,0,0,1,229,288.307l-20.6,24.27a1.667,1.667,0,0,0,1.27,2.745H233a1.667,1.667,0,0,0,0-3.333Z" transform="translate(-164.667 -215.322)"/>
      <path id="Path_244" data-name="Path 244" class="cls-1" d="M45.037,88.365a1.667,1.667,0,0,0-1.6-1.728h0A41.617,41.617,0,0,1,3.392,46.667H10a1.667,1.667,0,1,0,0-3.333H3.392A41.567,41.567,0,0,1,43.333,3.393v4.94a1.667,1.667,0,1,0,3.333,0V3.393A41.6,41.6,0,0,1,86.587,42.56l-6.5-6.5a1.667,1.667,0,0,0-2.357,2.357l9.3,9.3a1.638,1.638,0,0,0,.657.478,1.911,1.911,0,0,0,.2.048,1.649,1.649,0,0,0,.353.085h.1a1.606,1.606,0,0,0,.373-.073,1.568,1.568,0,0,0,.2-.038,1.642,1.642,0,0,0,.6-.377l9.43-9.427a1.667,1.667,0,0,0-2.357-2.357l-6.662,6.657A44.93,44.93,0,0,0,45.118.023C45.077.022,45.042,0,45,0s-.077.022-.118.023A44.92,44.92,0,0,0,.023,44.882c0,.042-.023.077-.023.118s.022.077.023.118A44.958,44.958,0,0,0,43.31,89.968h.062A1.667,1.667,0,0,0,45.037,88.365Z"/>
      <path id="Path_245" data-name="Path 245" class="cls-1" d="M187.353,106.666a1.667,1.667,0,0,0-2.357,0l-17.91,17.908a5.22,5.22,0,0,0-4.252,0l-8.48-8.48A1.667,1.667,0,0,0,152,118.451l8.463,8.463a4.99,4.99,0,1,0,9,0l17.893-17.893A1.667,1.667,0,0,0,187.353,106.666Zm-21.213,23.57h0a1.705,1.705,0,0,1-2.357,0,1.667,1.667,0,1,1,2.357,0Z" transform="translate(-119.962 -84.057)"/>
    </g>
  </g>
</svg>
