<svg xmlns="http://www.w3.org/2000/svg" viewBox="0 0 56.334 44.042">
  <defs>
    <style>
      .cls-1 {
        fill: #e05226;
      }

      .cls-2 {
        fill: #03b5c3;
      }
    </style>
  </defs>
  <g id="LOGO" transform="translate(-1.666 -13)">
    <g id="Group_357" data-name="Group 357" transform="translate(1.666 13)">
      <g id="Group_356" data-name="Group 356" transform="translate(0)">
        <path id="Path_334" data-name="Path 334" class="cls-1" d="M297.754,41.77a14.924,14.924,0,0,0-21.1,21.117l10.548,10.5,7.168-7.168a1.509,1.509,0,0,0,.452-1.141,1.607,1.607,0,0,0-.517-1.119,1.549,1.549,0,0,0-2.153.086L287.206,69l-8.374-8.331a11.79,11.79,0,0,1-3.337-6.845H300.7a1.442,1.442,0,0,0,1.442-1.442v-.108A14.739,14.739,0,0,0,297.754,41.77ZM275.5,50.746a11.925,11.925,0,0,1,3.38-6.8,11.842,11.842,0,0,1,20.084,6.781H275.5Z" transform="translate(-259.028 -29.349)"/>
        <g id="Group_346" data-name="Group 346" transform="translate(44.279 21.849)">
          <g id="Group_343" data-name="Group 343">
            <g id="Group_342" data-name="Group 342">
              <path id="Path_335" data-name="Path 335" class="cls-2" d="M427.171,103.868h-9.687a1.184,1.184,0,0,1,0-2.368h9.687a1.194,1.194,0,0,1,1.184,1.184A1.18,1.18,0,0,1,427.171,103.868Z" transform="translate(-416.3 -101.5)"/>
            </g>
          </g>
          <g id="Group_345" data-name="Group 345" transform="translate(1.184 1.292)">
            <g id="Group_344" data-name="Group 344">
              <path id="Path_336" data-name="Path 336" class="cls-2" d="M426.643,109.868a2.475,2.475,0,1,1-2.475,2.475,2.49,2.49,0,0,1,2.475-2.475m0-2.368a4.843,4.843,0,1,0,4.843,4.843,4.851,4.851,0,0,0-4.843-4.843Z" transform="translate(-421.8 -107.5)"/>
            </g>
          </g>
        </g>
        <g id="Group_351" data-name="Group 351" transform="translate(0 21.849)">
          <g id="Group_348" data-name="Group 348">
            <g id="Group_347" data-name="Group 347">
              <path id="Path_337" data-name="Path 337" class="cls-2" d="M221.471,103.868h-9.687a1.184,1.184,0,1,1,0-2.368h9.687a1.184,1.184,0,1,1,0,2.368Z" transform="translate(-210.6 -101.5)"/>
            </g>
          </g>
          <g id="Group_350" data-name="Group 350" transform="translate(1.184 1.292)">
            <g id="Group_349" data-name="Group 349">
              <path id="Path_338" data-name="Path 338" class="cls-2" d="M220.943,109.868a2.475,2.475,0,1,1-2.475,2.475,2.49,2.49,0,0,1,2.475-2.475m0-2.368a4.843,4.843,0,1,0,4.843,4.843,4.851,4.851,0,0,0-4.843-4.843Z" transform="translate(-216.1 -107.5)"/>
            </g>
          </g>
        </g>
        <g id="Group_353" data-name="Group 353" transform="translate(22.15 4.456)">
          <g id="Group_352" data-name="Group 352">
            <path id="Path_339" data-name="Path 339" class="cls-2" d="M324.371,23.068h-9.687a1.184,1.184,0,1,1,0-2.368h9.687a1.194,1.194,0,0,1,1.184,1.184A1.181,1.181,0,0,1,324.371,23.068Z" transform="translate(-313.5 -20.7)"/>
          </g>
        </g>
        <g id="Group_355" data-name="Group 355" transform="translate(26.994)">
          <g id="Group_354" data-name="Group 354">
            <path id="Path_340" data-name="Path 340" class="cls-2" d="M337.184,6.824A1.194,1.194,0,0,1,336,5.64V1.184a1.184,1.184,0,0,1,2.368,0V5.64A1.181,1.181,0,0,1,337.184,6.824Z" transform="translate(-336)"/>
          </g>
        </g>
      </g>
    </g>
  </g>
</svg>
