<svg xmlns="http://www.w3.org/2000/svg" viewBox="0 0 70 70">
    <defs>
        <style>
            .cls-1{fill:none}.cls-2{fill:#707070}
        </style>
    </defs>
    <g id="headphones" transform="translate(3)">
        <path id="Rectangle_161" d="M0 0h70v70H0z" class="cls-1" data-name="Rectangle 161" transform="translate(-3)"/>
        <path id="Path_253" d="M70.294 26.279v-2.657a24.272 24.272 0 0 0-6.33-16.653A21.834 21.834 0 0 0 47.761 0h-2.193a21.834 21.834 0 0 0-16.2 6.969 24.272 24.272 0 0 0-6.33 16.653v2.657a9.535 9.535 0 0 0-8.885 9.5v4.152a9.524 9.524 0 0 0 9.51 9.51h5.357a1.747 1.747 0 0 0 1.742-1.742v-19.7a1.747 1.747 0 0 0-1.742-1.742h-2.5v-2.635c0-11.484 8.189-20.137 19.034-20.137h2.192c10.86 0 19.034 8.653 19.034 20.137v2.628h-2.5a1.747 1.747 0 0 0-1.742 1.742v19.687a1.747 1.747 0 0 0 1.742 1.742h2.439c-.711 9.089-6.969 11.194-9.873 11.673a6.126 6.126 0 0 0-5.822-4.225h-4.352a6.12 6.12 0 0 0 0 12.239h4.37a6.127 6.127 0 0 0 5.895-4.5 16.48 16.48 0 0 0 5.909-2.018c3.151-1.844 6.882-5.6 7.375-13.183a9.521 9.521 0 0 0 8.929-9.5v-4.148a9.485 9.485 0 0 0-8.856-9.48zM27.3 45.937h-3.611a6.029 6.029 0 0 1-6.025-6.025v-4.153a6.029 6.029 0 0 1 6.025-6.025H27.3zm23.742 19.687h-4.37a2.628 2.628 0 1 1 0-5.256h4.37a2.628 2.628 0 1 1 0 5.256zM75.68 39.912a6.029 6.029 0 0 1-6.025 6.025H66.04v-16.2h3.615a6.029 6.029 0 0 1 6.025 6.025z" class="cls-2" data-name="Path 253" transform="translate(-14.15)"/>
    </g>
</svg>
