<svg xmlns="http://www.w3.org/2000/svg" viewBox="0 0 70.5 70">
    <defs>
        <style>
            .cls-1{fill:none}.cls-2,.cls-3{fill:#707070}.cls-2{stroke:#707070;stroke-width:.5px}
        </style>
    </defs>
    <g id="review" transform="translate(.25 4)">
        <path id="Rectangle_160" d="M0 0h70v70H0z" class="cls-1" data-name="Rectangle 160" transform="translate(0 -4)"/>
        <g id="Group_255" data-name="Group 255" transform="translate(9.714 20.398)">
            <g id="Group_254" data-name="Group 254">
                <path id="Path_246" d="M68.147 119.191a8.943 8.943 0 1 0 2.615 6.32 8.921 8.921 0 0 0-2.615-6.32zm-1.808 10.846v-.007a6.4 6.4 0 1 1 0 .007z" class="cls-2" data-name="Path 246" transform="translate(-52.876 -116.568)"/>
            </g>
        </g>
        <g id="Group_257" data-name="Group 257" transform="translate(0 41.216)">
            <g id="Group_256" data-name="Group 256">
                <path id="Path_247" d="M19.135 229.888h-.955A18.231 18.231 0 0 0 0 248.075v1.286a1.279 1.279 0 0 0 1.279 1.279h34.757a1.279 1.279 0 0 0 1.279-1.279v-1.286a18.239 18.239 0 0 0-18.18-18.187zm15.63 18.194H2.55a15.674 15.674 0 0 1 15.63-15.637h.955a15.674 15.674 0 0 1 15.63 15.63z" class="cls-2" data-name="Path 247" transform="translate(0 -229.888)"/>
            </g>
        </g>
        <g id="Group_259" data-name="Group 259" transform="translate(40.207 5.574)">
            <g id="Group_258" data-name="Group 258">
                <path id="Path_248" d="M237.68 74.934a1.28 1.28 0 0 0-.588-.316l.007.007-4.923-1.139-2.594-4.313a1.271 1.271 0 0 0-2.2 0l-2.6 4.328-4.923 1.139a1.271 1.271 0 0 0-.676 2.072l3.314 3.8-.441 5.041a1.271 1.271 0 0 0 1.764 1.286l4.659-1.977 4.549 1.925a1.279 1.279 0 0 0 1.874-1.235l-.441-5.041 3.277-3.77a1.278 1.278 0 0 0-.058-1.807zm-5.5 4.328a1.271 1.271 0 0 0-.309.941l.3 3.461-3.2-1.359a1.271 1.271 0 0 0-.985 0l-3.2 1.359.3-3.461a1.278 1.278 0 0 0-.389-1.014l-2.2-2.55 3.38-.786a1.272 1.272 0 0 0 .838-.632l1.764-2.939 1.793 2.976a1.271 1.271 0 0 0 .808.588l3.38.786z" class="cls-3" data-name="Path 248" transform="translate(-218.865 -68.535)"/>
            </g>
        </g>
        <g id="Group_261" data-name="Group 261" transform="translate(29.621)">
            <g id="Group_260" data-name="Group 260">
                <path id="Path_249" d="M195.586 42.53a25.22 25.22 0 0 0-28.276 0c-3.748 2.763-6.07 6.613-6.07 10.89a12.008 12.008 0 0 0 1.389 5.563 14.906 14.906 0 0 0 3.145 4.064l-3.211 6.653a1.271 1.271 0 0 0 1.815 1.617l7.348-4.549a24.249 24.249 0 0 0 4.343 1.315 26.6 26.6 0 0 0 5.342.544 23.977 23.977 0 0 0 14.138-4.327c3.748-2.763 6.07-6.613 6.07-10.89s-2.285-8.117-6.033-10.88zm-1.514 19.723h.007a21.421 21.421 0 0 1-12.632 3.836 24.076 24.076 0 0 1-4.835-.478 21.478 21.478 0 0 1-4.409-1.418 1.271 1.271 0 0 0-1.227.1l-4.225 2.616 1.734-3.674a1.279 1.279 0 0 0-.382-1.543 12.707 12.707 0 0 1-3.211-3.887A9.488 9.488 0 0 1 163.8 53.4c0-3.424 1.918-6.547 5.019-8.818a22.723 22.723 0 0 1 25.256.007c3.1 2.285 5.019 5.408 5.019 8.818s-1.921 6.561-5.022 8.846z" class="cls-2" data-name="Path 249" transform="translate(-161.24 -38.191)"/>
            </g>
        </g>
    </g>
</svg>
