<svg xmlns="http://www.w3.org/2000/svg" viewBox="0 0 16.008 16.034">
  <defs>
    <style>
      .cls-1 {
fill: #a59e9e;
      }
    </style>
  </defs>
  <g id="aeroplane" transform="translate(0.504 0.5)">
    <g id="Group_314" data-name="Group 314" transform="translate(0 0)">
      <path id="Path_298" data-name="Path 298" class="cls-1" d="M15.466,1.307l-.028-.269A1.153,1.153,0,0,0,14.359.016L14.133,0A2.445,2.445,0,0,0,12.3.711L10.034,2.966,2.6,2.952a2.4,2.4,0,0,0-1.688.709L.6,3.973a.477.477,0,0,0-.113.411.428.428,0,0,0,.284.3L6.687,6.3,5.312,7.674l-2.5.085a.914.914,0,0,0-.681.3L1.894,8.3a.448.448,0,0,0-.113.4.47.47,0,0,0,.269.3L5.227,10.2,6.5,13.488a.4.4,0,0,0,.326.255A.412.412,0,0,0,7.2,13.6l.255-.255a1.08,1.08,0,0,0,.3-.681l.085-2.51,1.39-1.361,1.6,5.928a.447.447,0,0,0,.3.3.312.312,0,0,0,.113.014.44.44,0,0,0,.312-.128l.312-.312a2.4,2.4,0,0,0,.709-1.7V5.462l2.2-2.212A2.334,2.334,0,0,0,15.466,1.307ZM14.374,2.852l-2.3,2.3a.28.28,0,0,0-.085.2v7.544a1.871,1.871,0,0,1-.539,1.3l-.142.142L9.623,8.2a.281.281,0,0,0-.2-.2c-.028,0-.043-.014-.071-.014a.28.28,0,0,0-.2.085L7.34,9.858a.257.257,0,0,0-.085.2L7.17,12.666a.4.4,0,0,1-.128.3l-.1.1L5.709,9.872a.268.268,0,0,0-.17-.156L2.462,8.539l.085-.085a.45.45,0,0,1,.3-.128l2.624-.085a.229.229,0,0,0,.184-.085l1.8-1.8a.27.27,0,0,0,.071-.269.281.281,0,0,0-.2-.2L1.171,4.2l.142-.142A1.837,1.837,0,0,1,2.6,3.519l7.544.014a.28.28,0,0,0,.2-.085L12.7,1.108A1.847,1.847,0,0,1,14.1.569l.227.014a.577.577,0,0,1,.539.511l.028.269A1.821,1.821,0,0,1,14.374,2.852Z" transform="translate(-0.482 0)"/>
    </g>
  </g>
</svg>
