<svg xmlns="http://www.w3.org/2000/svg" id="auricular-phone-symbol-in-a-circle" viewBox="0 0 30 30">
    <defs>
        <style>
            .cls-1{fill:#fff}
        </style>
    </defs>
    <path id="Path_219" d="M15 1.875A13.125 13.125 0 1 1 1.875 15 13.141 13.141 0 0 1 15 1.875M15 0a15 15 0 1 0 15 15A15 15 0 0 0 15 0zm8.362 20.015l-.084-.256a2.375 2.375 0 0 0-1.45-1.37l-2.217-.606a2.173 2.173 0 0 0-1.9.5l-.8.8a8.518 8.518 0 0 1-5.989-5.991l.8-.8a2.174 2.174 0 0 0 .5-1.9l-.6-2.217a2.373 2.373 0 0 0-1.371-1.45l-.261-.086a2.007 2.007 0 0 0-1.875.443l-1.2 1.2a2.236 2.236 0 0 0-.352.824 14.166 14.166 0 0 0 14.3 14.328 2.211 2.211 0 0 0 .862-.348l1.2-1.2a2.009 2.009 0 0 0 .437-1.871z" class="cls-1" data-name="Path 219"/>
</svg>
