<svg id="customer" xmlns="http://www.w3.org/2000/svg" viewBox="0 0 100 100">
  <defs>
    <style>
      .cls-1 {
        fill: #707070;
      }
    </style>
  </defs>
  <path id="Path_236" data-name="Path 236" class="cls-1" d="M176.741,31.491A15.746,15.746,0,1,0,161,15.745,15.763,15.763,0,0,0,176.741,31.491Zm0-28.3a12.554,12.554,0,1,1-12.554,12.554A12.568,12.568,0,0,1,176.741,3.191Z" transform="translate(-126.741)"/>
  <path id="Path_237" data-name="Path 237" class="cls-1" d="M134.2,166.2a24.081,24.081,0,0,1,24,22.455H121.322a1.6,1.6,0,0,0,0,3.191h38.528a1.6,1.6,0,0,0,1.6-1.6,27.242,27.242,0,0,0-54.485,0,1.6,1.6,0,0,0,1.6,1.6h6.383a1.6,1.6,0,0,0,0-3.191H110.2A24.082,24.082,0,0,1,134.2,166.2Z" transform="translate(-84.202 -128.326)"/>
  <path id="Path_238" data-name="Path 238" class="cls-1" d="M29.873,339.977l-8.754-1.469-4.1-7.871a1.6,1.6,0,0,0-2.83,0l-4.1,7.871L1.33,339.977a1.6,1.6,0,0,0-.875,2.691L6.674,349l-1.308,8.779a1.6,1.6,0,0,0,2.29,1.664l7.946-3.957,7.946,3.957a1.6,1.6,0,0,0,2.29-1.664L24.529,349l6.218-6.334a1.6,1.6,0,0,0-.874-2.691Zm-8.178,7.357a1.6,1.6,0,0,0-.44,1.353l.974,6.537-5.916-2.946a1.6,1.6,0,0,0-1.423,0l-5.916,2.946.974-6.537a1.6,1.6,0,0,0-.44-1.353l-4.63-4.716,6.518-1.094a1.6,1.6,0,0,0,1.151-.836l3.054-5.861,3.054,5.861a1.6,1.6,0,0,0,1.151.836l6.518,1.094-4.63,4.716Z" transform="translate(0.001 -259.613)"/>
  <path id="Path_239" data-name="Path 239" class="cls-1" d="M191.54,339.977l-8.754-1.469-4.1-7.871a1.6,1.6,0,0,0-2.83,0l-4.1,7.871L163,339.977a1.6,1.6,0,0,0-.875,2.691L168.341,349l-1.308,8.779a1.6,1.6,0,0,0,2.29,1.664l7.945-3.957,7.946,3.957a1.6,1.6,0,0,0,2.29-1.664L186.2,349l6.218-6.334a1.6,1.6,0,0,0-.875-2.691Zm-8.178,7.357a1.6,1.6,0,0,0-.44,1.353l.974,6.537-5.916-2.946a1.6,1.6,0,0,0-1.423,0l-5.916,2.946.974-6.537a1.6,1.6,0,0,0-.44-1.353l-4.63-4.716,6.518-1.094a1.6,1.6,0,0,0,1.151-.836l3.054-5.861,3.054,5.861a1.6,1.6,0,0,0,1.151.836l6.518,1.094Z" transform="translate(-127.269 -259.613)"/>
  <path id="Path_240" data-name="Path 240" class="cls-1" d="M354.46,341.057a1.6,1.6,0,0,0-1.254-1.081l-8.754-1.469-4.1-7.871a1.6,1.6,0,0,0-2.83,0l-4.1,7.871-8.754,1.469a1.6,1.6,0,0,0-.875,2.691L330.007,349l-1.308,8.779a1.6,1.6,0,0,0,2.29,1.664l7.945-3.957,7.945,3.957a1.6,1.6,0,0,0,2.29-1.664L347.862,349l6.218-6.334A1.594,1.594,0,0,0,354.46,341.057Zm-9.431,6.276a1.6,1.6,0,0,0-.44,1.353l.974,6.537-5.916-2.946a1.6,1.6,0,0,0-1.423,0l-5.916,2.946.974-6.537a1.6,1.6,0,0,0-.44-1.353l-4.63-4.716,6.518-1.094a1.6,1.6,0,0,0,1.151-.836l3.054-5.861,3.054,5.861a1.6,1.6,0,0,0,1.151.836l6.518,1.094Z" transform="translate(-254.538 -259.613)"/>
</svg>
