<svg xmlns="http://www.w3.org/2000/svg" viewBox="0 0 30 15.385">
    <defs>
        <style>
            .cls-1{fill:#505050}
        </style>
    </defs>
    <g id="user" transform="translate(15 1)">
        <g id="Group_1" data-name="Group 1" transform="translate(-15 -1)">
            <path id="Path_1" d="M13.132 9.945a7.663 7.663 0 0 0-2.923-1.833 4.447 4.447 0 1 0-5.032 0A7.7 7.7 0 0 0 0 15.385h1.2a6.49 6.49 0 1 1 12.981 0h1.2a7.642 7.642 0 0 0-2.249-5.44zm-5.44-2.253a3.245 3.245 0 1 1 3.245-3.245 3.249 3.249 0 0 1-3.245 3.245z" class="cls-1" data-name="Path 1" transform="translate(14.615)"/>
            <path id="Path_38" d="M13.132 9.945a7.663 7.663 0 0 0-2.923-1.833 4.447 4.447 0 1 0-5.032 0A7.7 7.7 0 0 0 0 15.385h1.2a6.49 6.49 0 1 1 12.981 0h1.2a7.642 7.642 0 0 0-2.249-5.44zm-5.44-2.253a3.245 3.245 0 1 1 3.245-3.245 3.249 3.249 0 0 1-3.245 3.245z" class="cls-1" data-name="Path 38"/>
        </g>
    </g>
</svg>
