<svg xmlns="http://www.w3.org/2000/svg" viewBox="0 0 30 30">
    <defs>
        <style>
            .cls-1{fill:#505050}
        </style>
    </defs>
    <path id="return" d="M5.332 28.005a1.174 1.174 0 1 1 .006.122 1.221 1.221 0 0 1-.006-.122zm4.688-.762a1.174 1.174 0 1 1 .033.277 1.156 1.156 0 0 1-.033-.276zm4.628-1.521a1.172 1.172 0 1 1 .1.478 1.172 1.172 0 0 1-.1-.477zm9.9-9.9a1.172 1.172 0 1 1 .691 1.069 1.167 1.167 0 0 1-.689-1.072zm1.523-4.51a1.172 1.172 0 1 1 .9 1.137 1.165 1.165 0 0 1-.897-1.14zm.821-4.8a1.113 1.113 0 0 1 .006-.12 1.172 1.172 0 1 1-.006.12zM1.93 24.661a1.17 1.17 0 1 1 .122.006 1.212 1.212 0 0 1-.122-.006zm.548-4.715a1.17 1.17 0 1 1 .277.033 1.156 1.156 0 0 1-.277-.033zm1.378-4.7a1.171 1.171 0 1 1 .478.1 1.172 1.172 0 0 1-.477-.097zm9.313-10.488a1.171 1.171 0 1 1 1.069.691 1.172 1.172 0 0 1-1.069-.691zm4.442-1.728a1.168 1.168 0 1 1 1.137.9 1.172 1.172 0 0 1-1.137-.9zm4.661-.919a1.172 1.172 0 1 1 1.164 1.053 1.172 1.172 0 0 1-1.164-1.054zM28.242 0A1.758 1.758 0 1 0 30 1.757 1.758 1.758 0 0 0 28.242 0zM1.758 26.484a1.758 1.758 0 1 0 1.758 1.758 1.758 1.758 0 0 0-1.758-1.758zM9.016.889L7.894 2.008l-6.523-.723L.11 2.545l5.368 1.891-2.925 2.946H.541L0 7.893l2.533 1.328 1.313 2.43.49-.474V9.206l2.973-2.945 1.882 5.365 1.26-1.261-.737-6.508 1.135-1.135C11.367 2.2 12.077.7 11.559.18S9.534.371 9.016.889zm9.513 28.93c.518.518 2.024-.192 2.542-.71l1.135-1.135 6.509.738 1.261-1.26-5.365-1.882 2.944-2.97h1.972l.474-.5-2.43-1.313-1.329-2.527-.511.541v2.012l-2.946 2.925-1.891-5.368-1.26 1.261.722 6.523-1.119 1.122c-.517.518-1.226 2.024-.708 2.543zm0 0" class="cls-1" transform="translate(0 .001)"/>
</svg>
