<svg xmlns="http://www.w3.org/2000/svg" viewBox="0 0 100 101.51">
  <defs>
    <style>
      .cls-1 {
        fill: #707070;
        fill-rule: evenodd;
      }
    </style>
  </defs>
  <path id="discount" class="cls-1" d="M50.5,0c2.384,0,4.029,1.88,5.658,3.741.965,1.1,1.921,2.2,2.507,2.3s1.887-.606,3.166-1.317c2.117-1.176,4.222-2.345,6.377-1.543,2.179.812,3,3.1,3.809,5.373.482,1.348.961,2.69,1.42,2.959s1.871.022,3.281-.225c2.367-.414,4.73-.828,6.485.652s1.735,3.878,1.724,6.282c-.006,1.42-.013,2.839.33,3.246s1.742.643,3.141.878c2.375.4,4.754.8,5.918,2.787s.36,4.242-.444,6.511c-.482,1.361-.967,2.726-.771,3.25s1.434,1.243,2.678,1.967c2.11,1.227,4.232,2.46,4.652,4.777.414,2.277-1.091,4.17-2.609,6.082-.931,1.173-1.87,2.355-1.87,3.03s.939,1.859,1.87,3.031c1.518,1.911,3.023,3.8,2.609,6.081-.421,2.316-2.543,3.551-4.652,4.778-1.245.723-2.483,1.444-2.678,1.967s.289,1.89.771,3.25c.8,2.268,1.6,4.529.444,6.51S90.773,78.76,88.4,79.16c-1.4.236-2.8.472-3.141.878s-.336,1.827-.33,3.247c.011,2.4.022,4.809-1.724,6.282s-4.119,1.066-6.485.652c-1.41-.246-2.821-.493-3.281-.225s-.938,1.612-1.42,2.959c-.813,2.277-1.629,4.562-3.809,5.373-2.155.8-4.26-.367-6.377-1.543-1.279-.711-2.566-1.426-3.166-1.317s-1.542,1.2-2.507,2.3c-1.629,1.862-3.274,3.741-5.658,3.741s-4.028-1.88-5.658-3.741c-.964-1.1-1.921-2.2-2.507-2.3s-1.886.606-3.166,1.317c-2.117,1.176-4.221,2.345-6.376,1.543-2.18-.812-3-3.1-3.81-5.373-.481-1.347-.961-2.69-1.42-2.959s-1.87-.022-3.281.225c-2.367.414-4.73.827-6.485-.653s-1.735-3.878-1.724-6.282c.007-1.42.013-2.839-.33-3.246S14,79.4,12.6,79.16c-2.375-.4-4.754-.8-5.918-2.787s-.359-4.242.445-6.511c.482-1.361.966-2.726.771-3.25s-1.433-1.243-2.678-1.967C3.113,63.417.99,62.184.571,59.867.157,57.59,1.661,55.7,3.179,53.785c.932-1.173,1.871-2.355,1.871-3.031s-.939-1.858-1.871-3.03C1.661,45.812.157,43.92.571,41.642c.42-2.316,2.543-3.55,4.651-4.777C6.467,36.141,7.706,35.421,7.9,34.9s-.288-1.89-.771-3.25c-.8-2.268-1.605-4.529-.445-6.51S10.228,22.75,12.6,22.35c1.4-.236,2.8-.472,3.141-.878s.337-1.827.33-3.247c-.011-2.4-.022-4.81,1.724-6.282s4.119-1.067,6.485-.653c1.41.246,2.822.493,3.281.225S28.5,9.9,28.984,8.556c.813-2.276,1.63-4.562,3.81-5.373,2.155-.8,4.26.367,6.376,1.543,1.28.711,2.567,1.426,3.166,1.317s1.543-1.2,2.507-2.3C46.473,1.88,48.118,0,50.5,0ZM75.07,25.611a1.982,1.982,0,0,0-1.513,3.263h0l.006.007c.04.047.083.092.127.135a31.8,31.8,0,0,1-33.9,51.676c-.06-.025-.122-.046-.184-.066l0,0h0a1.983,1.983,0,1,0-1.142,3.8A35.75,35.75,0,0,0,76.6,26.331,1.98,1.98,0,0,0,75.07,25.611Zm-5.983-5.032a1.983,1.983,0,1,0,1.983,1.983A1.983,1.983,0,0,0,69.086,20.578Zm-6.435-3.449a35.75,35.75,0,0,0-38.287,58.01A1.982,1.982,0,1,0,27.4,72.592v0l-.008-.009a1.772,1.772,0,0,0-.122-.13A31.8,31.8,0,0,1,61.3,20.853h0a1.983,1.983,0,1,0,1.346-3.724ZM31.915,76.966A1.983,1.983,0,1,0,33.9,78.949,1.983,1.983,0,0,0,31.915,76.966Zm7.043-45.7a8.231,8.231,0,1,0,5.821,2.411A8.205,8.205,0,0,0,38.958,31.27Zm3.021,5.211A4.274,4.274,0,1,0,43.23,39.5,4.259,4.259,0,0,0,41.979,36.48ZM60.4,32.166,37.311,67.178a1.971,1.971,0,0,0,3.295,2.165L63.691,34.332A1.971,1.971,0,1,0,60.4,32.166Zm1.647,21.61a8.233,8.233,0,1,0,5.82,2.411A8.207,8.207,0,0,0,62.044,53.777Zm3.02,5.211a4.272,4.272,0,1,0,1.252,3.021A4.26,4.26,0,0,0,65.064,58.987ZM53.19,6.34C52.153,5.156,51.106,3.96,50.5,3.96s-1.652,1.2-2.689,2.381c-1.42,1.622-2.828,3.23-4.781,3.585-1.983.36-3.886-.7-5.78-1.75-1.32-.733-2.632-1.462-3.082-1.295s-.952,1.588-1.458,3.006c-.721,2.017-1.439,4.029-3.152,5.032s-3.842.64-5.956.27c-1.46-.255-2.919-.51-3.252-.228s-.339,1.771-.332,3.25c.01,2.149.019,4.3-1.258,5.814s-3.39,1.867-5.508,2.223c-1.466.247-2.936.494-3.164.885s.27,1.792.769,3.2c.719,2.028,1.44,4.063.74,5.942-.691,1.855-2.538,2.929-4.4,4.009-1.324.77-2.657,1.545-2.749,2.055s.859,1.715,1.82,2.926c1.363,1.715,2.738,3.446,2.738,5.49S7.636,54.53,6.273,56.246c-.961,1.21-1.914,2.409-1.82,2.926S5.878,60.456,7.2,61.226c1.857,1.08,3.7,2.154,4.4,4.009.7,1.88-.021,3.914-.74,5.942-.5,1.408-1,2.811-.769,3.2s1.7.638,3.164.884c2.119.357,4.234.713,5.508,2.224S20.03,81.15,20.02,83.3c-.007,1.479-.013,2.958.332,3.25s1.792.026,3.252-.229c2.114-.369,4.232-.74,5.956.27s2.432,3.014,3.152,5.032c.506,1.418,1.015,2.842,1.458,3.006s1.762-.561,3.082-1.295c1.894-1.052,3.8-2.11,5.78-1.75,1.954.354,3.361,1.962,4.781,3.585,1.037,1.185,2.083,2.381,2.689,2.381s1.651-1.2,2.688-2.381c1.42-1.622,2.828-3.231,4.78-3.585,1.983-.36,3.887.7,5.781,1.75,1.32.733,2.632,1.462,3.082,1.295s.952-1.588,1.458-3.006c.721-2.017,1.439-4.028,3.151-5.032s3.842-.64,5.956-.27c1.461.256,2.919.511,3.254.229s.338-1.771.331-3.25c-.01-2.149-.019-4.3,1.258-5.814s3.389-1.867,5.507-2.224c1.467-.246,2.937-.494,3.165-.884s-.27-1.792-.769-3.2c-.719-2.028-1.44-4.063-.74-5.942.69-1.855,2.538-2.929,4.394-4.009,1.325-.771,2.657-1.545,2.75-2.055s-.859-1.716-1.82-2.926c-1.363-1.716-2.738-3.446-2.738-5.491s1.375-3.775,2.738-5.49c.961-1.21,1.914-2.409,1.82-2.926s-1.425-1.285-2.75-2.055c-1.856-1.08-3.7-2.155-4.394-4.009-.7-1.879.021-3.913.74-5.942.5-1.408,1-2.812.769-3.2s-1.7-.638-3.165-.885c-2.118-.356-4.233-.713-5.507-2.223s-1.269-3.665-1.258-5.814c.007-1.479.013-2.959-.331-3.25s-1.793-.026-3.254.228c-2.114.37-4.231.74-5.956-.27S69.01,11.9,68.29,9.887c-.507-1.418-1.015-2.841-1.458-3.006s-1.762.561-3.082,1.295c-1.894,1.052-3.8,2.11-5.781,1.75C56.016,9.571,54.609,7.962,53.19,6.34Zm0,0" transform="translate(-0.501)"/>
</svg>
