<svg xmlns="http://www.w3.org/2000/svg" viewBox="0 0 76 36.892">
    <defs>
        <style>
            .cls-1{fill:#fff;stroke:#fff}
        </style>
    </defs>
    <g id="Group_443" data-name="Group 443" transform="translate(.5 .601)">
        <g id="Group_333" data-name="Group 333" transform="translate(65.096 27.644)">
            <ellipse id="Ellipse_38" cx="2.077" cy="2.077" class="cls-1" data-name="Ellipse 38" rx="2.077" ry="2.077"/>
        </g>
        <g id="Group_334" data-name="Group 334" transform="translate(60.942 27.644)">
            <ellipse id="Ellipse_39" cx="2.077" cy="2.077" class="cls-1" data-name="Ellipse 39" rx="2.077" ry="2.077"/>
        </g>
        <g id="Group_335" data-name="Group 335" transform="translate(21.406 6.158)">
            <ellipse id="Ellipse_40" cx="2.077" cy="2.077" class="cls-1" data-name="Ellipse 40" rx="2.077" ry="2.077"/>
        </g>
        <g id="Group_336" data-name="Group 336" transform="translate(72.204 8.235)">
            <path id="Path_329" d="M182.2 101.5a1.415 1.415 0 0 0-1.4 1.4V118a1.4 1.4 0 1 0 2.8 0v-15.1a1.415 1.415 0 0 0-1.4-1.4z" class="cls-1" data-name="Path 329" transform="translate(-180.8 -101.5)"/>
        </g>
        <g id="Group_337" data-name="Group 337" transform="translate(55.831 18.019)">
            <path id="Path_330" d="M153.3 126a1.415 1.415 0 0 0-1.4 1.4v2.6a1.347 1.347 0 0 1-1.358 1.358H141.2a1.4 1.4 0 0 0 0 2.8h9.345a4.108 4.108 0 0 0 4.113-4.113v-2.6A1.367 1.367 0 0 0 153.3 126z" class="cls-1" data-name="Path 330" transform="translate(-139.8 -126)"/>
        </g>
        <g id="Group_338" data-name="Group 338" transform="translate(0 12.468)">
            <path id="Path_331" d="M53.554 117.651a1.415 1.415 0 0 0-1.4 1.4v2.6A1.347 1.347 0 0 1 50.8 123h-2.557a3.889 3.889 0 0 0 .24-1.358v-2.6a1.4 1.4 0 1 0-2.8 0v2.6A1.347 1.347 0 0 1 44.329 123h-2.556a3.889 3.889 0 0 0 .24-1.358v-2.6a1.4 1.4 0 1 0-2.8 0v2.6A1.347 1.347 0 0 1 37.859 123h-8.905a6.826 6.826 0 1 0-12.3-4.073A6.928 6.928 0 0 0 18.011 123H8.067v-4.073a1.4 1.4 0 0 0-2.8 0v12.34a1.347 1.347 0 0 1-1.358 1.358H1.4a1.4 1.4 0 0 0 0 2.8h2.554a4.108 4.108 0 0 0 4.113-4.113V125.8H50.8a4.108 4.108 0 0 0 4.113-4.113v-2.6a1.391 1.391 0 0 0-1.359-1.436zM23.482 123a4.073 4.073 0 1 1 4.073-4.073A4.091 4.091 0 0 1 23.482 123z" class="cls-1" data-name="Path 331" transform="translate(0 -112.1)"/>
        </g>
        <g id="Group_339" data-name="Group 339" transform="translate(19.92)">
            <path id="Path_332" d="M51.246 86.2a1.045 1.045 0 0 0 .679-.2l4.433-2.556A1.377 1.377 0 1 0 55 81.048L50.567 83.6a1.424 1.424 0 0 0-.519 1.877 1.318 1.318 0 0 0 1.198.723z" class="cls-1" data-name="Path 332" transform="translate(-49.88 -80.88)"/>
        </g>
        <g id="Group_340" data-name="Group 340" transform="translate(42.364)">
            <path id="Path_333" d="M107.446 86.2a1.045 1.045 0 0 0 .679-.2l4.433-2.556a1.377 1.377 0 0 0-1.358-2.4l-4.433 2.556a1.424 1.424 0 0 0-.519 1.877 1.361 1.361 0 0 0 1.198.723z" class="cls-1" data-name="Path 333" transform="translate(-106.08 -80.88)"/>
        </g>
    </g>
</svg>
