<svg xmlns="http://www.w3.org/2000/svg" viewBox="0 0 41 41">
    <defs>
        <style>
            .cls-1{fill:none;stroke:#fff}.cls-2{fill:#fff}
        </style>
    </defs>
    <g id="pinterest" transform="translate(-.5 .233)">
        <rect id="Rectangle_14" width="40" height="40" class="cls-1" data-name="Rectangle 14" rx="5" transform="translate(1 .267)"/>
        <g id="Group_149" data-name="Group 149" transform="translate(9.571 6.553)">
            <g id="Group_147" data-name="Group 147">
                <path id="Path_124" d="M142.225 101.472c-7.617 0-11.457 5.285-11.457 9.691 0 2.669 1.044 5.042 3.281 5.928a.759.759 0 0 0 .274.056.537.537 0 0 0 .529-.445c.075-.271.249-.957.329-1.246a.735.735 0 0 0-.23-.863 4.384 4.384 0 0 1-1.06-3.041c0-3.923 3.035-7.431 7.9-7.431 4.3 0 6.67 2.545 6.67 5.944 0 4.473-2.045 8.249-5.082 8.249a2.425 2.425 0 0 1-2.531-2.989c.482-1.966 1.417-4.086 1.417-5.5a2.1 2.1 0 0 0-2.163-2.328c-1.716 0-3.094 1.715-3.094 4.015a5.818 5.818 0 0 0 .512 2.455l-2.06 8.454a16.825 16.825 0 0 0-.049 5.894.2.2 0 0 0 .206.171.217.217 0 0 0 .174-.083 16.367 16.367 0 0 0 2.895-5.077c.2-.69 1.128-4.263 1.128-4.263a4.642 4.642 0 0 0 3.918 1.932c5.152 0 8.649-4.543 8.649-10.629-.005-4.607-4.032-8.894-10.156-8.894z" class="cls-2" data-name="Path 124" transform="translate(-130.768 -101.472)"/>
            </g>
        </g>
    </g>
</svg>
