<svg xmlns="http://www.w3.org/2000/svg" viewBox="0 0 70 71">
    <defs>
        <style>
            .cls-1{fill:none}.cls-2,.cls-3{fill:#707070}.cls-2{stroke:#707070}
        </style>
    </defs>
    <g id="quality" transform="translate(6 .5)">
        <path id="Rectangle_159" d="M0 0h70v70H0z" class="cls-1" data-name="Rectangle 159" transform="translate(-6)"/>
        <path id="Path_250" d="M97.886 62.312l-9.267-22.373a1.117 1.117 0 1 0-2.064.855l8.378 20.226-7.642-2.214a1.117 1.117 0 0 0-1.291.533l-3.838 6.969-8.989-21.7a22.525 22.525 0 1 0-22.323-8.677L39.923 62.312a1.117 1.117 0 0 0 1.343 1.5l9.016-2.612 4.528 8.222a1.117 1.117 0 0 0 .978.578h.062a1.117 1.117 0 0 0 .97-.688l8.659-20.9a1.117 1.117 0 0 0-2.064-.855l-7.77 18.751-3.838-6.969a1.117 1.117 0 0 0-1.289-.534l-7.642 2.214 9.591-23.155a22.448 22.448 0 0 0 16.433 7.15c.669 0 1.33-.031 1.985-.088L80.99 69.31a1.117 1.117 0 0 0 .97.688h.062a1.117 1.117 0 0 0 .978-.576l4.528-8.222 9.016 2.612a1.117 1.117 0 0 0 1.343-1.5zm-49.255-39.8A20.273 20.273 0 1 1 68.9 42.78a20.3 20.3 0 0 1-20.268-20.273z" class="cls-2" data-name="Path 250" transform="translate(-39.838)"/>
        <path id="Path_251" d="M173.842 69.377a1.117 1.117 0 0 0-.878-.756l-7.516-1.261-3.522-6.76a1.117 1.117 0 0 0-1.981 0l-3.522 6.759-7.516 1.261a1.117 1.117 0 0 0-.612 1.884l5.339 5.438-1.123 7.538a1.117 1.117 0 0 0 1.6 1.165l6.822-3.4 6.822 3.4a1.117 1.117 0 0 0 1.6-1.164l-1.123-7.538 5.339-5.439a1.117 1.117 0 0 0 .271-1.127zm-7.588 5.4a1.117 1.117 0 0 0-.308.947l.889 5.968-5.4-2.69a1.116 1.116 0 0 0-1 0l-5.4 2.69.889-5.968a1.117 1.117 0 0 0-.308-.947l-4.228-4.306 5.951-1a1.117 1.117 0 0 0 .806-.585l2.789-5.351 2.789 5.351a1.117 1.117 0 0 0 .806.585l5.951 1z" class="cls-3" data-name="Path 251" transform="translate(-131.868 -51.064)"/>
    </g>
</svg>
