<svg xmlns="http://www.w3.org/2000/svg" viewBox="0 0 41 41">
    <defs>
        <style>
            .cls-1{fill:none;stroke:#fff}.cls-2{fill:#fff}
        </style>
    </defs>
    <g id="telegram" transform="translate(0 .233)">
        <rect id="Rectangle_14" width="40" height="40" class="cls-1" data-name="Rectangle 14" rx="5" transform="translate(.5 .267)"/>
        <g id="telegram-2" transform="translate(10.5 11.184)">
            <path id="XMLID_497_" d="M.353 27.75l4.608 1.72 1.784 5.736a.542.542 0 0 0 .862.259l2.569-2.094a.766.766 0 0 1 .934-.026l4.633 3.364a.543.543 0 0 0 .851-.328l3.394-16.326a.543.543 0 0 0-.727-.617L.348 26.734a.544.544 0 0 0 .005 1.016zm6.1.8l9.007-5.547a.157.157 0 0 1 .189.248l-7.428 6.914a1.541 1.541 0 0 0-.478.922l-.253 1.877a.233.233 0 0 1-.454.036l-.974-3.422a.907.907 0 0 1 .396-1.023z" class="cls-2" transform="translate(0 -19.401)"/>
        </g>
    </g>
</svg>
