<svg xmlns="http://www.w3.org/2000/svg" viewBox="0 0 24.129 27.353">
  <defs>
    <style>
      .cls-1 {
        fill: #a59e9e;
      }

      .cls-2 {
        fill: none;
        stroke: #a59e9e;
      }
    </style>
  </defs>
  <g id="ticket_hotel" data-name="ticket+hotel" transform="translate(-1354.375 -61.64)">
    <g id="hotel_7_" data-name="hotel (7)" transform="translate(1275.925 70)">
      <g id="Group_452" data-name="Group 452" transform="translate(78.45 2.726)">
        <g id="Group_451" data-name="Group 451" transform="translate(0)">
          <path id="Path_452" data-name="Path 452" class="cls-1" d="M91.033,72.9H78.992a.543.543,0,0,0-.542.542V88.624a.543.543,0,0,0,.542.542H91.033a.543.543,0,0,0,.542-.542V73.442A.543.543,0,0,0,91.033,72.9ZM85.877,88.082H84.149V85.8h1.728Zm4.614,0H86.965V85.255a.543.543,0,0,0-.542-.542H83.607a.543.543,0,0,0-.542.542v2.827H79.542V73.988H90.491Z" transform="translate(-78.45 -72.9)"/>
        </g>
      </g>
      <g id="Group_454" data-name="Group 454" transform="translate(80.679 4.786)">
        <g id="Group_453" data-name="Group 453" transform="translate(0)">
          <path id="Path_453" data-name="Path 453" class="cls-1" d="M138.592,128a.543.543,0,0,0-.542.542v.879a.542.542,0,0,0,1.084,0v-.879A.543.543,0,0,0,138.592,128Z" transform="translate(-138.05 -128)"/>
        </g>
      </g>
      <g id="Group_456" data-name="Group 456" transform="translate(83.207 4.786)">
        <g id="Group_455" data-name="Group 455" transform="translate(0)">
          <path id="Path_454" data-name="Path 454" class="cls-1" d="M206.192,128a.543.543,0,0,0-.542.542v.879a.542.542,0,0,0,1.084,0v-.879A.543.543,0,0,0,206.192,128Z" transform="translate(-205.65 -128)"/>
        </g>
      </g>
      <g id="Group_458" data-name="Group 458" transform="translate(85.734 4.786)">
        <g id="Group_457" data-name="Group 457" transform="translate(0)">
          <path id="Path_455" data-name="Path 455" class="cls-1" d="M273.792,128a.543.543,0,0,0-.542.542v.879a.542.542,0,1,0,1.084,0v-.879A.543.543,0,0,0,273.792,128Z" transform="translate(-273.25 -128)"/>
        </g>
      </g>
      <g id="Group_460" data-name="Group 460" transform="translate(88.262 4.786)">
        <g id="Group_459" data-name="Group 459">
          <path id="Path_456" data-name="Path 456" class="cls-1" d="M341.392,128a.543.543,0,0,0-.542.542v.879a.542.542,0,0,0,1.084,0v-.879A.543.543,0,0,0,341.392,128Z" transform="translate(-340.85 -128)"/>
        </g>
      </g>
      <g id="Group_462" data-name="Group 462" transform="translate(80.679 8.275)">
        <g id="Group_461" data-name="Group 461" transform="translate(0)">
          <path id="Path_457" data-name="Path 457" class="cls-1" d="M138.592,221.3a.543.543,0,0,0-.542.542v.879a.542.542,0,0,0,1.084,0v-.879A.543.543,0,0,0,138.592,221.3Z" transform="translate(-138.05 -221.3)"/>
        </g>
      </g>
      <g id="Group_464" data-name="Group 464" transform="translate(83.207 8.275)">
        <g id="Group_463" data-name="Group 463" transform="translate(0)">
          <path id="Path_458" data-name="Path 458" class="cls-1" d="M206.192,221.3a.543.543,0,0,0-.542.542v.879a.542.542,0,1,0,1.084,0v-.879A.543.543,0,0,0,206.192,221.3Z" transform="translate(-205.65 -221.3)"/>
        </g>
      </g>
      <g id="Group_466" data-name="Group 466" transform="translate(85.734 8.275)">
        <g id="Group_465" data-name="Group 465" transform="translate(0)">
          <path id="Path_459" data-name="Path 459" class="cls-1" d="M273.792,221.3a.543.543,0,0,0-.542.542v.879a.542.542,0,1,0,1.084,0v-.879A.543.543,0,0,0,273.792,221.3Z" transform="translate(-273.25 -221.3)"/>
        </g>
      </g>
      <g id="Group_468" data-name="Group 468" transform="translate(88.262 8.275)">
        <g id="Group_467" data-name="Group 467">
          <path id="Path_460" data-name="Path 460" class="cls-1" d="M341.392,221.3a.543.543,0,0,0-.542.542v.879a.542.542,0,0,0,1.084,0v-.879A.543.543,0,0,0,341.392,221.3Z" transform="translate(-340.85 -221.3)"/>
        </g>
      </g>
      <g id="Group_470" data-name="Group 470" transform="translate(80.679 11.768)">
        <g id="Group_469" data-name="Group 469" transform="translate(0)">
          <path id="Path_461" data-name="Path 461" class="cls-1" d="M138.592,314.7a.543.543,0,0,0-.542.542v.879a.542.542,0,1,0,1.084,0v-.879A.543.543,0,0,0,138.592,314.7Z" transform="translate(-138.05 -314.7)"/>
        </g>
      </g>
      <g id="Group_472" data-name="Group 472" transform="translate(83.207 11.768)">
        <g id="Group_471" data-name="Group 471" transform="translate(0)">
          <path id="Path_462" data-name="Path 462" class="cls-1" d="M206.192,314.7a.543.543,0,0,0-.542.542v.879a.542.542,0,1,0,1.084,0v-.879A.543.543,0,0,0,206.192,314.7Z" transform="translate(-205.65 -314.7)"/>
        </g>
      </g>
      <g id="Group_474" data-name="Group 474" transform="translate(85.734 11.768)">
        <g id="Group_473" data-name="Group 473" transform="translate(0)">
          <path id="Path_463" data-name="Path 463" class="cls-1" d="M273.792,314.7a.543.543,0,0,0-.542.542v.879a.542.542,0,1,0,1.084,0v-.879A.543.543,0,0,0,273.792,314.7Z" transform="translate(-273.25 -314.7)"/>
        </g>
      </g>
      <g id="Group_476" data-name="Group 476" transform="translate(88.262 11.768)">
        <g id="Group_475" data-name="Group 475">
          <path id="Path_464" data-name="Path 464" class="cls-1" d="M341.392,314.7a.543.543,0,0,0-.542.542v.879a.542.542,0,0,0,1.084,0v-.879A.543.543,0,0,0,341.392,314.7Z" transform="translate(-340.85 -314.7)"/>
        </g>
      </g>
      <g id="Group_478" data-name="Group 478" transform="translate(80.679 15.257)">
        <g id="Group_477" data-name="Group 477" transform="translate(0)">
          <path id="Path_465" data-name="Path 465" class="cls-1" d="M138.592,408a.543.543,0,0,0-.542.542v.879a.542.542,0,1,0,1.084,0v-.879A.543.543,0,0,0,138.592,408Z" transform="translate(-138.05 -408)"/>
        </g>
      </g>
      <g id="Group_480" data-name="Group 480" transform="translate(88.262 15.257)">
        <g id="Group_479" data-name="Group 479">
          <path id="Path_466" data-name="Path 466" class="cls-1" d="M341.392,408a.543.543,0,0,0-.542.542v.879a.542.542,0,1,0,1.084,0v-.879A.543.543,0,0,0,341.392,408Z" transform="translate(-340.85 -408)"/>
        </g>
      </g>
      <g id="Group_482" data-name="Group 482" transform="translate(86.894)">
        <g id="Group_481" data-name="Group 481">
          <path id="Path_467" data-name="Path 467" class="cls-1" d="M305.145,1.294a.206.206,0,1,0,0-.411h-.49V.411h.49a.208.208,0,0,0,.206-.206.2.2,0,0,0-.2-.206h-.7a.208.208,0,0,0-.206.206V1.971a.2.2,0,0,0,.2.206h.7a.206.206,0,1,0,0-.411h-.49V1.294Z" transform="translate(-304.247)"/>
        </g>
      </g>
      <g id="Group_484" data-name="Group 484" transform="translate(88.812)">
        <g id="Group_483" data-name="Group 483">
          <path id="Path_468" data-name="Path 468" class="cls-1" d="M356.451,1.765h-.49V.206a.206.206,0,0,0-.411,0V1.971a.207.207,0,0,0,.206.206h.7a.206.206,0,1,0,0-.411Z" transform="translate(-355.55)"/>
        </g>
      </g>
      <g id="Group_486" data-name="Group 486" transform="translate(80.107)">
        <g id="Group_485" data-name="Group 485" transform="translate(0)">
          <path id="Path_469" data-name="Path 469" class="cls-1" d="M124.036,0a.207.207,0,0,0-.206.206V.883h-.669V.206a.206.206,0,1,0-.411,0V1.971a.205.205,0,0,0,.206.206.207.207,0,0,0,.206-.206V1.294h.669v.677a.206.206,0,0,0,.411,0V.206A.207.207,0,0,0,124.036,0Z" transform="translate(-122.75)"/>
        </g>
      </g>
      <g id="Group_488" data-name="Group 488" transform="translate(84.658)">
        <g id="Group_487" data-name="Group 487">
          <path id="Path_470" data-name="Path 470" class="cls-1" d="M245.83,0h-1.174a.207.207,0,0,0-.206.206.205.205,0,0,0,.206.206h.381V1.971a.206.206,0,0,0,.411,0V.411h.381a.207.207,0,0,0,.206-.206A.207.207,0,0,0,245.83,0Z" transform="translate(-244.45)"/>
        </g>
      </g>
      <g id="Group_490" data-name="Group 490" transform="translate(82.212)">
        <g id="Group_489" data-name="Group 489" transform="translate(0)">
          <path id="Path_471" data-name="Path 471" class="cls-1" d="M180.138,0a1.088,1.088,0,1,0,1.088,1.088A1.089,1.089,0,0,0,180.138,0Zm0,1.765a.677.677,0,1,1,.677-.677A.677.677,0,0,1,180.138,1.765Z" transform="translate(-179.05)"/>
        </g>
      </g>
    </g>
    <g id="aeroplane" transform="translate(1369.133 60.14)">
      <g id="Group_314" data-name="Group 314" transform="translate(-3 2)">
        <path id="Path_298" data-name="Path 298" class="cls-2" d="M12.336,1.034,12.314.821a.912.912,0,0,0-.853-.808L11.282,0A1.934,1.934,0,0,0,9.834.562l-1.8,1.784L2.16,2.335A1.9,1.9,0,0,0,.825,2.9l-.247.247a.377.377,0,0,0-.09.325A.339.339,0,0,0,.713,3.7L5.391,4.983,4.3,6.071l-1.975.067a.723.723,0,0,0-.539.236L1.6,6.565a.355.355,0,0,0-.09.314.372.372,0,0,0,.213.236l2.513.954,1.01,2.6a.318.318,0,0,0,.258.2.326.326,0,0,0,.292-.112l.2-.2a.854.854,0,0,0,.236-.539L6.3,8.035,7.4,6.957l1.268,4.69a.354.354,0,0,0,.236.236.247.247,0,0,0,.09.011.348.348,0,0,0,.247-.1l.247-.247a1.9,1.9,0,0,0,.561-1.346V4.321l1.739-1.75A1.846,1.846,0,0,0,12.336,1.034Zm-.864,1.223L9.655,4.074a.222.222,0,0,0-.067.157V10.2a1.48,1.48,0,0,1-.426,1.032l-.112.112L7.714,6.486a.222.222,0,0,0-.157-.157c-.022,0-.034-.011-.056-.011a.222.222,0,0,0-.157.067L5.907,7.8a.2.2,0,0,0-.067.157L5.773,10.02a.315.315,0,0,1-.1.236l-.079.079L4.617,7.81a.212.212,0,0,0-.135-.123L2.048,6.756l.067-.067a.356.356,0,0,1,.236-.1L4.427,6.52a.181.181,0,0,0,.146-.067L6,5.028a.214.214,0,0,0,.056-.213A.222.222,0,0,0,5.9,4.658L1.027,3.322l.112-.112A1.454,1.454,0,0,1,2.16,2.784L8.129,2.8a.222.222,0,0,0,.157-.067L10.148.877A1.461,1.461,0,0,1,11.259.45l.18.011a.456.456,0,0,1,.426.4l.022.213A1.441,1.441,0,0,1,11.472,2.257Z" transform="translate(-0.482 0)"/>
      </g>
    </g>
  </g>
</svg>
