<svg xmlns="http://www.w3.org/2000/svg" viewBox="0 0 35 26.28">
    <defs>
        <style>
            .cls-1{fill:#bebebe}
        </style>
    </defs>
    <g id="calendar" transform="translate(0 -63.779)">
        <g id="Group_157" data-name="Group 157" transform="translate(27.466 72.204)">
            <g id="Group_156" data-name="Group 156">
                <circle id="Ellipse_8" cx=".841" cy=".841" r=".841" class="cls-1" data-name="Ellipse 8"/>
            </g>
        </g>
        <g id="Group_159" data-name="Group 159" transform="translate(22.062 72.204)">
            <g id="Group_158" data-name="Group 158">
                <circle id="Ellipse_9" cx=".841" cy=".841" r=".841" class="cls-1" data-name="Ellipse 9"/>
            </g>
        </g>
        <g id="Group_161" data-name="Group 161" transform="translate(16.659 72.204)">
            <g id="Group_160" data-name="Group 160">
                <circle id="Ellipse_10" cx=".841" cy=".841" r=".841" class="cls-1" data-name="Ellipse 10"/>
            </g>
        </g>
        <g id="Group_163" data-name="Group 163" transform="translate(11.255 72.204)">
            <g id="Group_162" data-name="Group 162">
                <circle id="Ellipse_11" cx=".841" cy=".841" r=".841" class="cls-1" data-name="Ellipse 11"/>
            </g>
        </g>
        <g id="Group_165" data-name="Group 165" transform="translate(5.852 72.204)">
            <g id="Group_164" data-name="Group 164">
                <circle id="Ellipse_12" cx=".841" cy=".841" r=".841" class="cls-1" data-name="Ellipse 12"/>
            </g>
        </g>
        <g id="Group_167" data-name="Group 167" transform="translate(27.466 77.607)">
            <g id="Group_166" data-name="Group 166">
                <circle id="Ellipse_13" cx=".841" cy=".841" r=".841" class="cls-1" data-name="Ellipse 13"/>
            </g>
        </g>
        <g id="Group_169" data-name="Group 169" transform="translate(22.062 77.607)">
            <g id="Group_168" data-name="Group 168">
                <circle id="Ellipse_14" cx=".841" cy=".841" r=".841" class="cls-1" data-name="Ellipse 14"/>
            </g>
        </g>
        <g id="Group_171" data-name="Group 171" transform="translate(16.659 77.607)">
            <g id="Group_170" data-name="Group 170">
                <circle id="Ellipse_15" cx=".841" cy=".841" r=".841" class="cls-1" data-name="Ellipse 15"/>
            </g>
        </g>
        <g id="Group_173" data-name="Group 173" transform="translate(5.852 77.607)">
            <g id="Group_172" data-name="Group 172">
                <circle id="Ellipse_16" cx=".841" cy=".841" r=".841" class="cls-1" data-name="Ellipse 16"/>
            </g>
        </g>
        <g id="Group_175" data-name="Group 175" transform="translate(27.466 83.011)">
            <g id="Group_174" data-name="Group 174">
                <circle id="Ellipse_17" cx=".841" cy=".841" r=".841" class="cls-1" data-name="Ellipse 17"/>
            </g>
        </g>
        <g id="Group_177" data-name="Group 177" transform="translate(22.062 83.011)">
            <g id="Group_176" data-name="Group 176">
                <circle id="Ellipse_18" cx=".841" cy=".841" r=".841" class="cls-1" data-name="Ellipse 18"/>
            </g>
        </g>
        <g id="Group_179" data-name="Group 179" transform="translate(16.659 83.011)">
            <g id="Group_178" data-name="Group 178">
                <circle id="Ellipse_19" cx=".841" cy=".841" r=".841" class="cls-1" data-name="Ellipse 19"/>
            </g>
        </g>
        <g id="Group_181" data-name="Group 181" transform="translate(11.255 83.011)">
            <g id="Group_180" data-name="Group 180">
                <circle id="Ellipse_20" cx=".841" cy=".841" r=".841" class="cls-1" data-name="Ellipse 20"/>
            </g>
        </g>
        <g id="Group_183" data-name="Group 183" transform="translate(5.852 83.011)">
            <g id="Group_182" data-name="Group 182">
                <circle id="Ellipse_21" cx=".841" cy=".841" r=".841" class="cls-1" data-name="Ellipse 21"/>
            </g>
        </g>
        <g id="Group_185" data-name="Group 185" transform="translate(8.834 75.186)">
            <g id="Group_184" data-name="Group 184">
                <path id="Path_142" d="M135.032 230.65h-5.078a.723.723 0 0 0-.723.723v5.078a.723.723 0 0 0 .723.723h5.078a.723.723 0 0 0 .723-.723v-5.078a.723.723 0 0 0-.723-.723zm-.723 5.078h-3.632V232.1h3.632v3.632z" class="cls-1" data-name="Path 142" transform="translate(-129.23 -230.65)"/>
            </g>
        </g>
        <g id="Group_187" data-name="Group 187" transform="translate(0 63.779)">
            <g id="Group_186" data-name="Group 186">
                <path id="Path_143" d="M32.589 65.511h-5.312v-.928a.8.8 0 0 0-1.607 0v.928h-4.375v-.928a.8.8 0 0 0-1.607 0v.928h-4.376v-.928a.8.8 0 0 0-1.607 0v.928H9.33v-.928a.8.8 0 0 0-1.607 0v.928H2.411A2.413 2.413 0 0 0 0 67.922v19.726a2.414 2.414 0 0 0 2.411 2.411h30.178A2.414 2.414 0 0 0 35 87.648V67.922a2.414 2.414 0 0 0-2.411-2.411zm0 22.941H2.411a.8.8 0 0 1-.8-.8v-19.73a.8.8 0 0 1 .8-.8h5.312v.928a.8.8 0 0 0 1.607 0v-.928h4.375v.928a.8.8 0 0 0 1.607 0v-.928h4.375v.928a.8.8 0 0 0 1.607 0v-.928h4.376v.928a.8.8 0 0 0 1.607 0v-.928h5.312a.8.8 0 0 1 .8.8v19.726a.8.8 0 0 1-.8.804z" class="cls-1" data-name="Path 143" transform="translate(0 -63.779)"/>
            </g>
        </g>
    </g>
</svg>
