<svg xmlns="http://www.w3.org/2000/svg" viewBox="0 0 41 41">
    <defs>
        <style>
            .cls-1{fill:none;stroke:#fff}.cls-2{fill:#fff}
        </style>
    </defs>
    <g id="ln" transform="translate(0 .233)">
        <rect id="Rectangle_14" width="40" height="40" class="cls-1" data-name="Rectangle 14" rx="5" transform="translate(.5 .267)"/>
        <g id="linkedin-logo" transform="translate(11.5 11.155)">
            <path id="LinkedIn" d="M18 20.1v6.655h-3.858v-6.206c0-1.56-.558-2.624-1.954-2.624a2.111 2.111 0 0 0-1.98 1.411 2.64 2.64 0 0 0-.128.941v6.481H6.221s.052-10.516 0-11.606h3.859V16.8l-.025.037h.025V16.8a3.832 3.832 0 0 1 3.478-1.918C16.1 14.88 18 16.539 18 20.1zM2.184 9.558a2.011 2.011 0 1 0-.051 4.011h.026a2.012 2.012 0 1 0 .025-4.011zm-1.955 17.2h3.858V15.152H.229z" class="cls-2" transform="translate(0 -9.558)"/>
        </g>
    </g>
</svg>
