<svg xmlns="http://www.w3.org/2000/svg" viewBox="0 0 85.874 38.506">
  <defs>
    <style>
      .cls-1 {
        fill: #fff;
        stroke: #707070;
      }

      .cls-2 {
        fill: #1a80ad;
      }

      .cls-3 {
        fill: #1a5b80;
      }

      .cls-4 {
        stroke: none;
      }

      .cls-5 {
        fill: none;
      }
    </style>
  </defs>
  <g id="paypal" transform="translate(0 0)">
    <g id="Rectangle_24" data-name="Rectangle 24" class="cls-1" transform="translate(0 0)">
      <rect class="cls-4" width="85.874" height="38.506" rx="5"/>
      <rect class="cls-5" x="0.5" y="0.5" width="84.874" height="37.506" rx="4.5"/>
    </g>
    <g id="Group_139" data-name="Group 139" transform="translate(45.114 10.87)">
      <path id="Path_89" data-name="Path 89" class="cls-2" d="M317.781,197.135a20.978,20.978,0,0,0-4.717.761l-.366,2.993a12.855,12.855,0,0,1,4.031-.856c1.558-.047,2.473.285,2.153,1.616-4.625,0-7.741.949-8.382,3.943-.917,5.131,4.718,4.989,6.962,2.756l-.274,1.234h4.122l1.786-8.173C323.826,197.942,320.667,197.088,317.781,197.135Zm.275,8.362a2.065,2.065,0,0,1-2.152,1.616c-.916.047-1.741-.762-1.145-1.712.458-.807,1.741-1,2.519-1h1.009C318.194,204.784,318.147,205.116,318.056,205.5Z" transform="translate(-296.32 -193.904)"/>
      <path id="Path_90" data-name="Path 90" class="cls-2" d="M377.961,180.963l-3.411,15.679h4.187l3.453-15.679Z" transform="translate(-347.659 -180.963)"/>
      <path id="Path_91" data-name="Path 91" class="cls-2" d="M250.962,181.2H243.3l-3.4,15.631h4.452l1.148-5.178h3.167a6.285,6.285,0,0,0,6.381-5.131A4.1,4.1,0,0,0,250.962,181.2Zm-.136,5.321a2.862,2.862,0,0,1-2.618,2.137h-2.065l.918-4.276h2.2A1.61,1.61,0,0,1,250.826,186.523Z" transform="translate(-239.899 -181.154)"/>
    </g>
    <g id="Group_140" data-name="Group 140" transform="translate(5.097 10.8)">
      <path id="Path_92" data-name="Path 92" class="cls-3" d="M117.3,197.135a19.625,19.625,0,0,0-4.617.761l-.36,2.993a11.939,11.939,0,0,1,3.937-.856c1.539-.047,2.444.285,2.171,1.616-4.569,0-7.645.949-8.279,3.943-.906,5.131,4.659,4.989,6.831,2.756l-.271,1.234h4.117l1.764-8.173C123.316,197.942,120.148,197.088,117.3,197.135Zm.317,8.362a2.1,2.1,0,0,1-2.172,1.616,1.1,1.1,0,0,1-1.086-1.712c.451-.807,1.719-1,2.443-1h1.042A8.839,8.839,0,0,0,117.615,205.5Z" transform="translate(-95.966 -193.833)"/>
      <path id="Path_93" data-name="Path 93" class="cls-3" d="M176.509,198.272h4.117l.664,7.279,4.028-7.279h4.249l-9.782,17.421h-4.6l3.008-5.121Z" transform="translate(-148.089 -194.745)"/>
      <path id="Path_94" data-name="Path 94" class="cls-3" d="M50.612,181.2H42.926L39.52,196.833h4.51l1.1-5.178h3.221a6.284,6.284,0,0,0,6.352-5.131C55.49,182.865,52.868,181.2,50.612,181.2Zm-.138,5.321A2.812,2.812,0,0,1,47.9,188.66H45.78l.967-4.276h2.209A1.585,1.585,0,0,1,50.474,186.523Z" transform="translate(-39.52 -181.084)"/>
      <path id="Path_95" data-name="Path 95" class="cls-3" d="M414.569,182.708v-1.849h-.69v-.248h1.662v.248h-.693v1.849Z" transform="translate(-339.117 -180.611)"/>
      <path id="Path_96" data-name="Path 96" class="cls-3" d="M423.575,182.708v-2.1h.416l.5,1.484c.046.138.078.241.1.309.024-.076.061-.188.111-.335l.5-1.458h.373v2.1h-.267v-1.756l-.611,1.756h-.249l-.608-1.785v1.785Z" transform="translate(-346.876 -180.611)"/>
    </g>
  </g>
</svg>
