<svg xmlns="http://www.w3.org/2000/svg" viewBox="0 0 30 30">
    <defs>
        <style>
            .cls-1{fill:#f0f0f0}.cls-2{fill:#d80027}.cls-3{fill:#6da544}.cls-4,.cls-6{fill:none}.cls-4{stroke:#e0582d}.cls-5{stroke:none}
        </style>
    </defs>
    <g id="iran" transform="translate(1 1)">
        <circle id="Ellipse_22" cx="14.502" cy="14.502" r="14.502" class="cls-1" data-name="Ellipse 22" transform="translate(-.25 -.25)"/>
        <path id="Path_268" d="M181.959 189.216h-1.9c.016.209.025.419.025.63a7.175 7.175 0 0 1-.962 3.73 3.432 3.432 0 0 1-.93 1v-5.366H176.3v5.366a3.432 3.432 0 0 1-.93-1 7.174 7.174 0 0 1-.962-3.73c0-.212.009-.422.025-.63h-1.9q-.018.311-.019.63c0 3.889 2.077 6.936 4.729 6.936s4.729-3.047 4.729-6.936a7.324 7.324 0 0 0-.013-.63z" class="cls-2" data-name="Path 268" transform="translate(-162.997 -178.747)"/>
        <path id="Path_269" d="M29.953 6.936h1.892V8.2h1.892V6.936h1.892V8.2h1.892V6.936h1.892V8.2H41.3V6.936h1.892V8.2h1.892V6.936h1.892V8.2h4.551a14.507 14.507 0 0 0-26.127 0h4.551z" class="cls-3" data-name="Path 269" transform="translate(-24.213 -.25)"/>
        <path id="Path_270" d="M46.977 367.3v1.261h-1.891V367.3h-1.892v1.261H41.3V367.3h-1.889v1.261h-1.892V367.3h-1.891v1.261h-1.892V367.3h-1.891v1.261h-1.892V367.3H25.4a14.508 14.508 0 0 0 26.126 0z" class="cls-2" data-name="Path 270" transform="translate(-24.213 -346.747)"/>
        <g id="Ellipse_43" class="cls-4" data-name="Ellipse 43" transform="translate(-1 -1)">
            <circle cx="15" cy="15" r="15" class="cls-5"/>
            <circle cx="15" cy="15" r="14.5" class="cls-6"/>
        </g>
    </g>
</svg>
