<svg xmlns="http://www.w3.org/2000/svg" viewBox="0 0 60 60.988">
    <defs>
        <style>
            .cls-1{fill:#707070}
        </style>
    </defs>
    <g id="around">
        <g id="Group_295" data-name="Group 295">
            <g id="Group_294" data-name="Group 294">
                <path id="Path_285" d="M62.763 21.035A29.991 29.991 0 0 0 5.519 38.953l1.939-.607a27.96 27.96 0 1 1 3.226 6.863l-1.7 1.105A30.1 30.1 0 0 0 34.2 59.975a29.981 29.981 0 0 0 28.563-38.94z" class="cls-1" data-name="Path 285" transform="translate(-4.147)"/>
            </g>
        </g>
        <g id="Group_297" data-name="Group 297" transform="translate(11.19 9.186)">
            <g id="Group_296" data-name="Group 296">
                <path id="Path_286" d="M111.007 82.155l.583-1.947-10.16-3.048a1.015 1.015 0 0 0-1.01.255l-2.032 2.032a1.016 1.016 0 0 0 .306 1.647l9.144 4.064.825-1.857-7.791-3.463.557-.557z" class="cls-1" data-name="Path 286" transform="translate(-98.092 -77.117)"/>
            </g>
        </g>
        <g id="Group_299" data-name="Group 299" transform="translate(11.191 7.156)">
            <g id="Group_298" data-name="Group 298">
                <path id="Path_287" d="M120.447 61.088a1.016 1.016 0 0 0-1.016-1.016 8.315 8.315 0 0 0-5.918 2.452l-8.613 8.614-3.506-.877a1.016 1.016 0 0 0-.965.267l-2.036 2.032a1.015 1.015 0 0 0 .2 1.589l4.862 2.918 2.918 4.862a1.015 1.015 0 0 0 .747.486 1 1 0 0 0 .124.007 1.024 1.024 0 0 0 .719-.3l2.032-2.032a1.018 1.018 0 0 0 .267-.965l-.876-3.5 8.752-8.666a8.381 8.381 0 0 0 2.309-5.871zm-12.908 13.5a1.016 1.016 0 0 0-.271.968l.877 3.506-.705.705-2.379-3.967a1.012 1.012 0 0 0-.348-.348l-3.964-2.378.705-.705 3.506.877a1.016 1.016 0 0 0 .965-.267l9.022-9.022a6.285 6.285 0 0 1 3.387-1.763 6.264 6.264 0 0 1-1.651 3.339z" class="cls-1" data-name="Path 287" transform="translate(-98.094 -60.072)"/>
            </g>
        </g>
        <g id="Group_301" data-name="Group 301" transform="translate(23.465 16.01)">
            <g id="Group_300" data-name="Group 300">
                <path id="Path_288" d="M209.141 144.695l-3.048-10.295-1.949.577 2.864 9.67-.617.545-3.391-7.855-1.866.8 3.942 9.144a1.017 1.017 0 0 0 .711.589 1.039 1.039 0 0 0 .223.024 1.013 1.013 0 0 0 .672-.254l2.154-1.9a1.017 1.017 0 0 0 .305-1.045z" class="cls-1" data-name="Path 288" transform="translate(-201.138 -134.403)"/>
            </g>
        </g>
        <g id="Group_303" data-name="Group 303" transform="translate(.05 24.781)">
            <g id="Group_302" data-name="Group 302">
                <path id="Path_289" d="M23.866 239.28c-7.236 3.429-12.912 3.872-15.569 1.215-4.606-4.606.4-17.989 11.636-31.132l-1.544-1.321c-12.328 14.415-17.07 28.351-11.53 33.89a8.77 8.77 0 0 0 6.441 2.318c3.16 0 7.032-1.047 11.434-3.133z" class="cls-1" data-name="Path 289" transform="translate(-4.565 -208.043)"/>
            </g>
        </g>
        <g id="Group_305" data-name="Group 305" transform="translate(34.558 28.489)">
            <g id="Group_304" data-name="Group 304">
                <path id="Path_290" d="M313.451 245.805a1.016 1.016 0 0 0-.9-.536h-3.436l-2.767-5.534a1.017 1.017 0 0 0-.909-.562h-10.16a1.016 1.016 0 0 0-1.016 1.016v8.128a1.015 1.015 0 0 0 1.016 1.016h3.048v11.175a1.015 1.015 0 0 0 1.016 1.016h5.08a1.016 1.016 0 0 0 .719-.3l4.064-4.064a1.012 1.012 0 0 0 .3-.718v-3.756l3.893-5.84a1.016 1.016 0 0 0 .052-1.041zm-5.806 6.011a1.021 1.021 0 0 0-.171.564v3.643l-3.468 3.468h-3.644v-11.174a1.015 1.015 0 0 0-1.016-1.016H296.3v-6.1h8.516l2.767 5.534a1.017 1.017 0 0 0 .909.562h2.166z" class="cls-1" data-name="Path 290" transform="translate(-294.267 -239.173)"/>
            </g>
        </g>
        <g id="Group_307" data-name="Group 307" transform="translate(36.59 11.218)">
            <g id="Group_306" data-name="Group 306">
                <path id="Path_291" d="M329.187 109.418l-3.771-6.6a1.016 1.016 0 0 0-.882-.512h-6.1a1.017 1.017 0 0 0-.845.452l-1.73 2.6h-2.5v-5.08h5.08a1.013 1.013 0 0 0 .718-.3l3.766-3.766h4.659v-2.033H322.5a1.013 1.013 0 0 0-.718.3l-3.766 3.766h-5.675a1.016 1.016 0 0 0-1.016 1.016v7.112a1.016 1.016 0 0 0 1.016 1.016h4.064a1.017 1.017 0 0 0 .845-.452l1.73-2.6h4.963l3.771 6.6a1.016 1.016 0 0 0 .882.512h4.064v-2.032z" class="cls-1" data-name="Path 291" transform="translate(-311.327 -94.179)"/>
            </g>
        </g>
        <g id="Group_309" data-name="Group 309" transform="translate(14.239 33.569)">
            <g id="Group_308" data-name="Group 308">
                <path id="Path_292" d="M138.926 284.867h-5.675l-2.75-2.75a1.013 1.013 0 0 0-.718-.3H124.7a1.016 1.016 0 0 0-1.016 1.016v7.112a1.016 1.016 0 0 0 1.016 1.016h4.064v10.16a1.016 1.016 0 0 0 1.626.813l4.064-3.048a1.017 1.017 0 0 0 .406-.813v-2.56l4.7-3.758a1.016 1.016 0 0 0 .381-.793v-5.08a1.016 1.016 0 0 0-1.015-1.015zm-1.016 5.608l-4.7 3.758a1.017 1.017 0 0 0-.381.793v2.54l-2.029 1.524v-9.144a1.016 1.016 0 0 0-1.016-1.016h-4.064v-5.08h3.643l2.75 2.75a1.014 1.014 0 0 0 .718.3h5.08z" class="cls-1" data-name="Path 292" transform="translate(-123.687 -281.819)"/>
            </g>
        </g>
        <g id="Group_311" data-name="Group 311" transform="translate(1.032 16.298)">
            <g id="Group_310" data-name="Group 310">
                <path id="Path_293" d="M20.79 142.4l-3.048-5.08a1.015 1.015 0 0 0-.871-.493h-1.015v2.032h.444l2.344 3.906-2.487 2.487a1.013 1.013 0 0 0-.3.718v3.048h-3.049v2.032h4.064a1.016 1.016 0 0 0 1.016-1.016v-3.643l2.75-2.75a1.017 1.017 0 0 0 .152-1.241z" class="cls-1" data-name="Path 293" transform="translate(-12.808 -136.825)"/>
            </g>
        </g>
        <g id="Group_313" data-name="Group 313" transform="translate(18.865 1.059)">
            <g id="Group_312" data-name="Group 312">
                <path id="Path_294" d="M175.166 8.889v1.239l-3.295.824a1.032 1.032 0 0 0-.317.14L169 12.8l-5.568-2.785-.909 1.817 6.1 3.048a1.016 1.016 0 0 0 1.017-.064l2.9-1.934 3.894-.973a1.016 1.016 0 0 0 .77-.985V8.889z" class="cls-1" data-name="Path 294" transform="translate(-162.519 -8.889)"/>
            </g>
        </g>
    </g>
</svg>
