<svg xmlns="http://www.w3.org/2000/svg" viewBox="0 0 41 41">
    <defs>
        <style>
            .cls-1{fill:none;stroke:#fff}.cls-2{fill:#fff}
        </style>
    </defs>
    <g id="t" transform="translate(0 .233)">
        <rect id="Rectangle_14" width="40" height="40" class="cls-1" data-name="Rectangle 14" rx="5" transform="translate(.5 .267)"/>
        <g id="twitter-logo-silhouette" transform="translate(10.679 11.136)">
            <g id="Group_1" data-name="Group 1">
                <path id="Path_1" d="M21 59.459a8.6 8.6 0 0 1-2.474.678 4.326 4.326 0 0 0 1.894-2.382 8.685 8.685 0 0 1-2.736 1.045 4.311 4.311 0 0 0-7.341 3.928 12.231 12.231 0 0 1-8.879-4.5A4.313 4.313 0 0 0 2.8 63.979a4.308 4.308 0 0 1-1.951-.541v.054A4.312 4.312 0 0 0 4.3 67.716a4.364 4.364 0 0 1-1.135.151 4.134 4.134 0 0 1-.811-.08 4.31 4.31 0 0 0 4.023 2.992 8.643 8.643 0 0 1-5.35 1.841A9.153 9.153 0 0 1 0 72.561 12.177 12.177 0 0 0 6.6 74.5a12.172 12.172 0 0 0 12.261-12.257l-.014-.558A8.6 8.6 0 0 0 21 59.459z" class="cls-2" data-name="Path 1" transform="translate(-.001 -57.441)"/>
            </g>
        </g>
    </g>
</svg>
