<svg xmlns="http://www.w3.org/2000/svg" viewBox="0 0 30 30">
    <defs>
        <style>
            .cls-1{fill:#008693}.cls-2,.cls-3{fill:#fff}.cls-3{font-size:11px;font-family:HelveticaNeue,Helvetica Neue}
        </style>
    </defs>
    <g id="coin-IRR" transform="translate(-.918 -.918)">
        <path id="Path_129" d="M35.526 14.474A14.965 14.965 0 0 1 40 25a15 15 0 0 1-30 0 14.886 14.886 0 0 1 25.526-10.526zm0 0" class="cls-1" data-name="Path 129" transform="translate(-9.082 -9.082)"/>
        <path id="Path_130" d="M81.341 92.683a11.341 11.341 0 1 1 11.342-11.342 11.634 11.634 0 0 1-11.342 11.342zm0 0" class="cls-1" data-name="Path 130" transform="translate(-65.423 -65.423)"/>
        <path id="Path_132" d="M13.617 27.234a13.872 13.872 0 0 0 13.617-13.617A13.865 13.865 0 0 0 13.617 0 13.87 13.87 0 0 0 0 13.617a13.865 13.865 0 0 0 13.617 13.617zM1.6 13.085h-.524a12.418 12.418 0 0 1 3.215-7.723l.356.356a.532.532 0 0 0 .753-.752L5.031 4.6a12.609 12.609 0 0 1 8.054-3.521v.838a.532.532 0 0 0 1.064 0v-.84a12.618 12.618 0 0 1 7.89 3.366l-.523.523a.532.532 0 0 0 .752.752l.523-.523a12.618 12.618 0 0 1 3.366 7.89h-.678a.529.529 0 1 0 0 1.058h.678a12.622 12.622 0 0 1-3.521 8.06l-.369-.369a.532.532 0 0 0-.752.752l.356.356a12.419 12.419 0 0 1-7.723 3.215v-.519a.532.532 0 1 0-1.064 0v.519A12.618 12.618 0 0 1 5.2 22.791l.5-.5a.532.532 0 1 0-.752-.752l-.5.5a12.617 12.617 0 0 1-3.366-7.889H1.6a.532.532 0 1 0 0-1.064zm0 0" class="cls-2" data-name="Path 132" transform="translate(2.301 2.301)"/>
        <path id="Path_133" d="M64.893 70.121a.61.61 0 0 0 .729-.46A11.142 11.142 0 0 1 76.1 61.22a10.732 10.732 0 0 1 0 21.463 11.142 11.142 0 0 1-10.477-8.442.61.61 0 1 0-1.189.269A11.948 11.948 0 1 0 76.1 60a12.352 12.352 0 0 0-11.667 9.392.609.609 0 0 0 .46.729zm0 0" class="cls-1" data-name="Path 133" transform="translate(-60.182 -56.033)"/>
        <text id="IRR" class="cls-3" transform="translate(6.5 18.918)">
            <tspan x="0" y="0">IRR</tspan>
        </text>
    </g>
</svg>
