<svg xmlns="http://www.w3.org/2000/svg" viewBox="0 0 15 21.705">
  <defs>
    <style>
      .cls-1 {
        fill: #a59e9e;
      }
    </style>
  </defs>
  <g id="hotel_7_" data-name="hotel (7)" transform="translate(-78.45)">
    <g id="Group_452" data-name="Group 452" transform="translate(78.45 3.115)">
      <g id="Group_451" data-name="Group 451" transform="translate(0)">
        <path id="Path_452" data-name="Path 452" class="cls-1" d="M92.83,72.9H79.07a.62.62,0,0,0-.62.62V90.87a.62.62,0,0,0,.62.62H92.83a.62.62,0,0,0,.62-.62V73.52A.62.62,0,0,0,92.83,72.9ZM86.937,90.25H84.963V87.639h1.974Zm5.273,0h-4.03V87.02a.62.62,0,0,0-.62-.62H84.343a.62.62,0,0,0-.62.62V90.25H79.7V74.144H92.211Z" transform="translate(-78.45 -72.9)"/>
      </g>
    </g>
    <g id="Group_454" data-name="Group 454" transform="translate(80.997 5.47)">
      <g id="Group_453" data-name="Group 453" transform="translate(0)">
        <path id="Path_453" data-name="Path 453" class="cls-1" d="M138.67,128a.62.62,0,0,0-.62.62v1a.62.62,0,1,0,1.239,0v-1A.62.62,0,0,0,138.67,128Z" transform="translate(-138.05 -128)"/>
      </g>
    </g>
    <g id="Group_456" data-name="Group 456" transform="translate(83.886 5.47)">
      <g id="Group_455" data-name="Group 455" transform="translate(0)">
        <path id="Path_454" data-name="Path 454" class="cls-1" d="M206.27,128a.62.62,0,0,0-.62.62v1a.62.62,0,0,0,1.239,0v-1A.62.62,0,0,0,206.27,128Z" transform="translate(-205.65 -128)"/>
      </g>
    </g>
    <g id="Group_458" data-name="Group 458" transform="translate(86.775 5.47)">
      <g id="Group_457" data-name="Group 457" transform="translate(0)">
        <path id="Path_455" data-name="Path 455" class="cls-1" d="M273.87,128a.62.62,0,0,0-.62.62v1a.62.62,0,1,0,1.239,0v-1A.62.62,0,0,0,273.87,128Z" transform="translate(-273.25 -128)"/>
      </g>
    </g>
    <g id="Group_460" data-name="Group 460" transform="translate(89.664 5.47)">
      <g id="Group_459" data-name="Group 459">
        <path id="Path_456" data-name="Path 456" class="cls-1" d="M341.47,128a.62.62,0,0,0-.62.62v1a.62.62,0,0,0,1.239,0v-1A.62.62,0,0,0,341.47,128Z" transform="translate(-340.85 -128)"/>
      </g>
    </g>
    <g id="Group_462" data-name="Group 462" transform="translate(80.997 9.457)">
      <g id="Group_461" data-name="Group 461" transform="translate(0)">
        <path id="Path_457" data-name="Path 457" class="cls-1" d="M138.67,221.3a.62.62,0,0,0-.62.62v1a.62.62,0,1,0,1.239,0v-1A.62.62,0,0,0,138.67,221.3Z" transform="translate(-138.05 -221.3)"/>
      </g>
    </g>
    <g id="Group_464" data-name="Group 464" transform="translate(83.886 9.457)">
      <g id="Group_463" data-name="Group 463" transform="translate(0)">
        <path id="Path_458" data-name="Path 458" class="cls-1" d="M206.27,221.3a.62.62,0,0,0-.62.62v1a.62.62,0,1,0,1.239,0v-1A.62.62,0,0,0,206.27,221.3Z" transform="translate(-205.65 -221.3)"/>
      </g>
    </g>
    <g id="Group_466" data-name="Group 466" transform="translate(86.775 9.457)">
      <g id="Group_465" data-name="Group 465" transform="translate(0)">
        <path id="Path_459" data-name="Path 459" class="cls-1" d="M273.87,221.3a.62.62,0,0,0-.62.62v1a.62.62,0,1,0,1.239,0v-1A.62.62,0,0,0,273.87,221.3Z" transform="translate(-273.25 -221.3)"/>
      </g>
    </g>
    <g id="Group_468" data-name="Group 468" transform="translate(89.664 9.457)">
      <g id="Group_467" data-name="Group 467">
        <path id="Path_460" data-name="Path 460" class="cls-1" d="M341.47,221.3a.62.62,0,0,0-.62.62v1a.62.62,0,0,0,1.239,0v-1A.62.62,0,0,0,341.47,221.3Z" transform="translate(-340.85 -221.3)"/>
      </g>
    </g>
    <g id="Group_470" data-name="Group 470" transform="translate(80.997 13.449)">
      <g id="Group_469" data-name="Group 469" transform="translate(0)">
        <path id="Path_461" data-name="Path 461" class="cls-1" d="M138.67,314.7a.62.62,0,0,0-.62.62v1a.62.62,0,1,0,1.239,0v-1A.62.62,0,0,0,138.67,314.7Z" transform="translate(-138.05 -314.7)"/>
      </g>
    </g>
    <g id="Group_472" data-name="Group 472" transform="translate(83.886 13.449)">
      <g id="Group_471" data-name="Group 471" transform="translate(0)">
        <path id="Path_462" data-name="Path 462" class="cls-1" d="M206.27,314.7a.62.62,0,0,0-.62.62v1a.62.62,0,0,0,1.239,0v-1A.62.62,0,0,0,206.27,314.7Z" transform="translate(-205.65 -314.7)"/>
      </g>
    </g>
    <g id="Group_474" data-name="Group 474" transform="translate(86.775 13.449)">
      <g id="Group_473" data-name="Group 473" transform="translate(0)">
        <path id="Path_463" data-name="Path 463" class="cls-1" d="M273.87,314.7a.62.62,0,0,0-.62.62v1a.62.62,0,1,0,1.239,0v-1A.62.62,0,0,0,273.87,314.7Z" transform="translate(-273.25 -314.7)"/>
      </g>
    </g>
    <g id="Group_476" data-name="Group 476" transform="translate(89.664 13.449)">
      <g id="Group_475" data-name="Group 475">
        <path id="Path_464" data-name="Path 464" class="cls-1" d="M341.47,314.7a.62.62,0,0,0-.62.62v1a.62.62,0,0,0,1.239,0v-1A.62.62,0,0,0,341.47,314.7Z" transform="translate(-340.85 -314.7)"/>
      </g>
    </g>
    <g id="Group_478" data-name="Group 478" transform="translate(80.997 17.436)">
      <g id="Group_477" data-name="Group 477" transform="translate(0)">
        <path id="Path_465" data-name="Path 465" class="cls-1" d="M138.67,408a.62.62,0,0,0-.62.62v1a.62.62,0,1,0,1.239,0v-1A.62.62,0,0,0,138.67,408Z" transform="translate(-138.05 -408)"/>
      </g>
    </g>
    <g id="Group_480" data-name="Group 480" transform="translate(89.664 17.436)">
      <g id="Group_479" data-name="Group 479">
        <path id="Path_466" data-name="Path 466" class="cls-1" d="M341.47,408a.62.62,0,0,0-.62.62v1a.62.62,0,0,0,1.239,0v-1A.62.62,0,0,0,341.47,408Z" transform="translate(-340.85 -408)"/>
      </g>
    </g>
    <g id="Group_482" data-name="Group 482" transform="translate(88.099)">
      <g id="Group_481" data-name="Group 481">
        <path id="Path_467" data-name="Path 467" class="cls-1" d="M305.273,1.479a.235.235,0,1,0,0-.47h-.56V.47h.56a.237.237,0,0,0,.235-.235A.233.233,0,0,0,305.277,0h-.795a.237.237,0,0,0-.235.235V2.252a.231.231,0,0,0,.231.235h.795a.235.235,0,1,0,0-.47h-.56V1.479Z" transform="translate(-304.247)"/>
      </g>
    </g>
    <g id="Group_484" data-name="Group 484" transform="translate(90.292)">
      <g id="Group_483" data-name="Group 483">
        <path id="Path_468" data-name="Path 468" class="cls-1" d="M356.58,2.017h-.56V.235a.235.235,0,0,0-.47,0V2.252a.237.237,0,0,0,.235.235h.795a.235.235,0,1,0,0-.47Z" transform="translate(-355.55)"/>
      </g>
    </g>
    <g id="Group_486" data-name="Group 486" transform="translate(80.343)">
      <g id="Group_485" data-name="Group 485" transform="translate(0)">
        <path id="Path_469" data-name="Path 469" class="cls-1" d="M124.22,0a.237.237,0,0,0-.235.235v.774h-.765V.235a.235.235,0,1,0-.47,0V2.252a.234.234,0,0,0,.235.235.237.237,0,0,0,.235-.235V1.479h.765v.774a.235.235,0,1,0,.47,0V.235A.237.237,0,0,0,124.22,0Z" transform="translate(-122.75)"/>
      </g>
    </g>
    <g id="Group_488" data-name="Group 488" transform="translate(85.544)">
      <g id="Group_487" data-name="Group 487">
        <path id="Path_470" data-name="Path 470" class="cls-1" d="M246.027,0h-1.342a.237.237,0,0,0-.235.235.234.234,0,0,0,.235.235h.436V2.252a.235.235,0,0,0,.47,0V.47h.436a.237.237,0,0,0,.235-.235A.237.237,0,0,0,246.027,0Z" transform="translate(-244.45)"/>
      </g>
    </g>
    <g id="Group_490" data-name="Group 490" transform="translate(82.749)">
      <g id="Group_489" data-name="Group 489" transform="translate(0)">
        <path id="Path_471" data-name="Path 471" class="cls-1" d="M180.294,0a1.244,1.244,0,1,0,1.244,1.244A1.245,1.245,0,0,0,180.294,0Zm0,2.017a.774.774,0,1,1,.773-.774A.773.773,0,0,1,180.294,2.017Z" transform="translate(-179.05)"/>
      </g>
    </g>
  </g>
</svg>
