<svg xmlns="http://www.w3.org/2000/svg" viewBox="0 0 41 41">
    <defs>
        <style>
            .cls-1,.cls-3{fill:none;stroke:#fff}.cls-2{fill:#fff}.cls-3{stroke-width:2px}
        </style>
    </defs>
    <g id="insta" transform="translate(0 .233)">
        <rect id="Rectangle_14" width="40" height="40" class="cls-1" data-name="Rectangle 14" rx="5" transform="translate(.5 .267)"/>
        <g id="instagram-logo" transform="translate(9.708 9.476)">
            <path id="Path_2" d="M16.653 0H6.347A6.354 6.354 0 0 0 0 6.347v10.306A6.354 6.354 0 0 0 6.347 23h10.306A6.354 6.354 0 0 0 23 16.653V6.347A6.354 6.354 0 0 0 16.653 0zm4.307 16.653a4.311 4.311 0 0 1-4.307 4.306H6.347a4.311 4.311 0 0 1-4.306-4.306V6.347a4.311 4.311 0 0 1 4.306-4.306h10.306a4.312 4.312 0 0 1 4.307 4.306v10.306z" class="cls-2" data-name="Path 2"/>
            <path id="Path_4" d="M119.921 28.251a1 1 0 1 0 .707.293 1 1 0 0 0-.707-.293z" class="cls-2" data-name="Path 4" transform="translate(-102.588 -23.584)"/>
            <path id="Path_5" d="M123.049 28.251a4.126 4.126 0 1 0 2.919 1.208 4.144 4.144 0 0 0-2.919-1.208z" class="cls-3" data-name="Path 5" transform="translate(-111.66 -20.718)"/>
        </g>
    </g>
</svg>
