<svg xmlns="http://www.w3.org/2000/svg" viewBox="0 0 23 27.742">
    <defs>
        <style>
            .cls-1{fill:#bebebe;stroke:#bebebe;stroke-miterlimit:10}
        </style>
    </defs>
    <g id="hotel-single-map-logo" transform="translate(-1.011 -1.001)">
        <g id="Layer_1" data-name="Layer 1" transform="translate(1.511 1.501)">
            <g id="_Group_" data-name="&lt;Group&gt;">
                <g id="_Group_2" data-name="&lt;Group&gt;">
                    <path id="_Compound_Path_" d="M12.494 28.036l-7.787-7.743a11.01 11.01 0 0 1 15.571-15.57 10.833 10.833 0 0 1 3.233 7.769v.081a.478.478 0 0 1-.478.478h-20.4a9.8 9.8 0 0 0 2.861 6.459l6.989 6.959 4.337-4.333a.578.578 0 0 1 .787-.044.555.555 0 0 1 .022.809zM2.64 11.929h19.742a9.722 9.722 0 0 0-2.891-6.419A9.888 9.888 0 0 0 2.64 11.929z" class="cls-1" data-name="&lt;Compound Path&gt;" transform="translate(-1.511 -1.501)"/>
                </g>
            </g>
        </g>
    </g>
</svg>
